<svg xmlns="http://www.w3.org/2000/svg" width="16" height="16" fill="none" aria-hidden="true" data-icon="LanguagesSmall" viewBox="0 0 16 16"><path fill="currentColor" fill-rule="evenodd" d="m10.767 5.333-.263.664L9.34 8.935l-.571 1.442L7.333 14h1.775l.727-1.967h3.587l.74 1.967H16l-3.434-8.667zm-.148 4.602-.235.628h2.502l-1.251-3.35zM9.527 4.842q.04-.101.095-.192H6.42V2H4.926v2.65H.541v1.347h3.774C3.35 7.79 1.752 9.515 0 10.428c.33.286.811.811 1.046 1.165 1.505-.913 2.857-2.364 3.88-4.02v5.094h1.493v-5.15c.4.636.848 1.245 1.333 1.806L8.32 7.89a11.5 11.5 0 0 1-1.337-1.893H9.07z" clip-rule="evenodd"/></svg>